Coordinates
nRows=17
nColumns=34

# SIMM Motion File Header:
name Coordinates
datacolumns 34
datarows 17
otherdata 1
range 0.60000000 0.61600000

Units are S.I. units (second, meters, Newtons, ...)
Angles are in degrees.

endheader
time	pelvis_tz	pelvis_tx	pelvis_ty	pelvis_tilt	pelvis_list	pelvis_rotation	hip_flexion_r	hip_adduction_r	hip_rotation_r	knee_r_tx	knee_r_ty	knee_angle_r	tib_pat_r_tx	tib_pat_r_ty	tib_pat_r_r1	ankle_angle_r	subtalar_angle_r	mtp_angle_r	hip_flexion_l	hip_adduction_l	hip_rotation_l	knee_l_tx	knee_l_ty	knee_angle_l	tib_pat_l_tx	tib_pat_l_ty	tib_pat_l_r1	ankle_angle_l	subtalar_angle_l	mtp_angle_l	lumbar_extension	lumbar_bending	lumbar_rotation
      0.60000000	     -0.27055230	      0.44664761	      0.88677464	     -0.72418978	      1.62050345	     -3.37003294	    -13.49620659	      1.51586672	     15.45224247	     -0.00114981	     -0.41492373	    -19.50756432	      0.04394814	     -0.02050520	     13.47250772	     19.05502894	     -0.00000000	     -0.00000000	     22.46501817	      2.86205065	      9.46493341	     -0.00355511	     -0.41378693	     -8.27857161	      0.04554930	     -0.02094823	      7.95098232	     -5.39763927	     -0.00000000	      0.00000000	     -5.62972544	      1.27133456	      4.55057695
      0.60100000	     -0.27067586	      0.44792971	      0.88680080	     -0.73121128	      1.67752293	     -3.34265971	    -13.47330198	      1.46842157	     15.37815798	     -0.00111054	     -0.41494570	    -19.68898257	      0.04392208	     -0.02049904	     13.52541940	     18.87649588	     -0.00000000	     -0.00000000	     22.45440189	      2.94716527	      9.46779587	     -0.00353455	     -0.41379708	     -8.39457977	      0.04553105	     -0.02094231	      8.03573900	     -5.41927438	     -0.00000000	      0.00000000	     -5.59394213	      1.19187185	      4.54723878
      0.60200000	     -0.27080064	      0.44921388	      0.88683048	     -0.73828833	      1.73437232	     -3.31474763	    -13.44928276	      1.42100230	     15.30303031	     -0.00107118	     -0.41496800	    -19.87182699	      0.04389567	     -0.02049282	     13.57785016	     18.69196338	     -0.00000000	     -0.00000000	     22.44302714	      3.03220664	      9.47103808	     -0.00351396	     -0.41380719	     -8.50993252	      0.04551290	     -0.02093644	      8.11934015	     -5.43923164	     -0.00000000	      0.00000000	     -5.55792283	      1.11264959	      4.54338938
      0.60300000	     -0.27092663	      0.45050009	      0.88686365	     -0.74541654	      1.79103710	     -3.28630930	    -13.42413893	      1.37361457	     15.22686750	     -0.00103174	     -0.41499064	    -20.05610098	      0.04386891	     -0.02048652	     13.62979292	     18.50140239	     -0.00000000	     -0.00000000	     22.43087586	      3.11714849	      9.47465281	     -0.00349337	     -0.41381726	     -8.62457423	      0.04549485	     -0.02093062	      8.20176065	     -5.45749181	     -0.00000000	      0.00000000	     -5.52168289	      1.03368434	      4.53903049
      0.60400000	     -0.27105380	      0.45178828	      0.88690026	     -0.75259154	      1.84750309	     -3.25735766	    -13.39786044	      1.32626362	     15.14967817	     -0.00099223	     -0.41501361	    -20.24180746	      0.04384178	     -0.02048015	     13.68124080	     18.30478763	     -0.00000000	     -0.00000000	     22.41793047	      3.20196483	      9.47863237	     -0.00347278	     -0.41382730	     -8.73845052	      0.04547693	     -0.02092485	      8.28297734	     -5.47403659	     -0.00000000	      0.00000000	     -5.48523765	      0.95499233	      4.53416408
      0.60500000	     -0.27118214	      0.45307841	      0.88694027	     -0.75980897	      1.90375648	     -3.22790595	    -13.37043734	      1.27895421	     15.07147144	     -0.00095266	     -0.41503691	    -20.42894885	      0.04381428	     -0.02047370	     13.73218723	     18.10209763	     -0.00000000	     -0.00000000	     22.40417380	      3.28663008	      9.48296863	     -0.00345221	     -0.41383728	     -8.85150821	      0.04545914	     -0.02091914	      8.36296896	     -5.48884861	     -0.00000000	      0.00000000	     -5.44860239	      0.87658940	      4.52879239
      0.60600000	     -0.27131161	      0.45437042	      0.88698364	     -0.76706452	      1.95978386	     -3.19796776	    -13.34185951	      1.23169074	     14.99225704	     -0.00091303	     -0.41506057	    -20.61752707	      0.04378641	     -0.02046718	     13.78262592	     17.89331495	     -0.00000000	     -0.00000000	     22.38958925	      3.37111902	      9.48765298	     -0.00343166	     -0.41384721	     -8.96369535	      0.04544150	     -0.02091349	      8.44171608	     -5.50191142	     -0.00000000	      0.00000000	     -5.41179231	      0.79849102	      4.52291793
      0.60700000	     -0.27144222	      0.45566427	      0.88703034	     -0.77435393	      2.01557218	     -3.16755698	    -13.31211673	      1.18447717	     14.91204521	     -0.00087335	     -0.41508457	    -20.80754358	      0.04375816	     -0.02046058	     13.83255091	     17.67842618	     -0.00000000	     -0.00000000	     22.37416074	      3.45540678	      9.49267642	     -0.00341115	     -0.41385708	     -9.07496124	      0.04542404	     -0.02090791	      8.51920104	     -5.51320959	     -0.00000000	      0.00000000	     -5.37482251	      0.72071229	      4.51654348
      0.60800000	     -0.27157392	      0.45695989	      0.88708033	     -0.78167295	      2.07110881	     -3.13668783	    -13.28119866	      1.13731704	     14.83084677	     -0.00083361	     -0.41510892	    -20.99899937	      0.04372954	     -0.02045391	     13.88195656	     17.45742209	     -0.00000000	     -0.00000000	     22.35787280	      3.53946896	      9.49802950	     -0.00339069	     -0.41386688	     -9.18525642	      0.04540675	     -0.02090241	      8.59540790	     -5.52272865	     -0.00000000	      0.00000000	     -5.33770796	      0.64326789	      4.50967212
      0.60900000	     -0.27170671	      0.45825724	      0.88713357	     -0.78901741	      2.12638158	     -3.10537484	    -13.24909483	      1.09021345	     14.74867312	     -0.00079383	     -0.41513363	    -21.19189497	      0.04370054	     -0.02044717	     13.93083765	     17.23029767	     -0.00000000	     -0.00000000	     22.34071054	      3.62328156	      9.50370239	     -0.00337029	     -0.41387662	     -9.29453272	      0.04538965	     -0.02089698	      8.67032238	     -5.53045520	     -0.00000000	      0.00000000	     -5.30046353	      0.56617209	      4.50230723
      0.61000000	     -0.27184055	      0.45955626	      0.88719003	     -0.79638315	      2.18137875	     -3.07363282	    -13.21579464	      1.04316906	     14.66553617	     -0.00075400	     -0.41515870	    -21.38623048	      0.04367116	     -0.02044034	     13.97918934	     16.99705226	     -0.00000000	     -0.00000000	     22.32265969	      3.70682110	      9.50968483	     -0.00334997	     -0.41388628	     -9.40274323	      0.04537275	     -0.02089163	      8.74393177	     -5.53637694	     -0.00000000	      0.00000000	     -5.26310392	      0.48943870	      4.49445249
      0.61100000	     -0.27197544	      0.46085688	      0.88724966	     -0.80376611	      2.23608903	     -3.04147691	    -13.18128737	      0.99618607	     14.58144843	     -0.00071412	     -0.41518413	    -21.58200554	      0.04364139	     -0.02043345	     14.02700720	     16.75768959	     -0.00000000	     -0.00000000	     22.30370659	      3.79006456	      9.51596621	     -0.00332973	     -0.41389587	     -9.50984235	      0.04535607	     -0.02088636	      8.81622494	     -5.54048267	     -0.00000000	      0.00000000	     -5.22564370	      0.41308108	      4.48611187
      0.61200000	     -0.27211133	      0.46215906	      0.88731242	     -0.81116225	      2.29050159	     -3.00892250	    -13.14556220	      0.94926624	     14.49642296	     -0.00067421	     -0.41520993	    -21.77921933	      0.04361123	     -0.02042647	     14.07428727	     16.51221777	     -0.00000000	     -0.00000000	     22.28383820	      3.87298945	      9.52253554	     -0.00330959	     -0.41390537	     -9.61578577	      0.04533961	     -0.02088118	      8.88719221	     -5.54276224	     -0.00000000	      0.00000000	     -5.18809727	      0.33711216	      4.47728963
      0.61300000	     -0.27224822	      0.46346273	      0.88737828	     -0.81856760	      2.34460604	     -2.97598526	    -13.10860826	      0.90241091	     14.41047338	     -0.00063427	     -0.41523610	    -21.97787057	      0.04358068	     -0.02041942	     14.12102604	     16.26064941	     -0.00000000	     -0.00000000	     22.26304210	      3.95557381	      9.52938151	     -0.00328956	     -0.41391479	     -9.72053048	      0.04532339	     -0.02087608	      8.95682533	     -5.54320659	     -0.00000000	      0.00000000	     -5.15047890	      0.26154443	      4.46799032
      0.61400000	     -0.27238608	      0.46476783	      0.88744720	     -0.82597825	      2.39839247	     -2.94268112	    -13.07041458	      0.85562095	     14.32361390	     -0.00059429	     -0.41526265	    -22.17795747	      0.04354974	     -0.02041230	     14.16722049	     16.00300157	     -0.00000000	     -0.00000000	     22.24130645	      4.03779620	      9.53649253	     -0.00326965	     -0.41392411	     -9.82403481	      0.04530742	     -0.02087108	      9.02511742	     -5.54180774	     -0.00000000	      0.00000000	     -5.11280270	      0.18638991	      4.45821875
      0.61500000	     -0.27252489	      0.46607430	      0.88751914	     -0.83339035	      2.45185141	     -2.90902627	    -13.03097019	      0.80889682	     14.23585927	     -0.00055429	     -0.41528957	    -22.37947775	      0.04351841	     -0.02040510	     14.21286808	     15.73929585	     -0.00000000	     -0.00000000	     22.21862005	      4.11963575	      9.54385669	     -0.00324987	     -0.41393334	     -9.92625840	      0.04529169	     -0.02086618	      9.09206289	     -5.53855884	     -0.00000000	      0.00000000	     -5.07508259	      0.11166022	      4.44797998
      0.61600000	     -0.27266461	      0.46738208	      0.88759406	     -0.84080010	      2.50497383	     -2.87503713	    -12.99026412	      0.76223853	     14.14722483	     -0.00051426	     -0.41531687	    -22.58242861	      0.04348667	     -0.02039782	     14.25796683	     15.46955844	     -0.00000000	     -0.00000000	     22.19497226	      4.20107218	      9.55146183	     -0.00323024	     -0.41394247	    -10.02716221	      0.04527624	     -0.02086137	      9.15765740	     -5.53345415	     -0.00000000	      0.00000000	     -5.03733235	      0.03736650	      4.43727934
